# xmcd CD database file
#
# Track frame offsets:
#	150
#	26867
#	59302
#	76130
#	91167
#	111817
#	132370
#	149180
#	170485
#	189570
#	215675
#	237435
#
# Disc length: 3545 seconds
#
# Revision: 0
# Processed by: cddbd v1.5.1PL0 Copyright (c) Steve Scherf et al.
# Submitted via: CDex 1.51
#
DISCID=b00dd70c
DTITLE=桑田佳祐 - JAZZで聴くTSUNAMI 桑田佳祐作品集
DYEAR=2000
DGENRE=Jazz
TTITLE0=TSUNAMI
TTITLE1=LOVE AFFAIR〜秘密のデート〜
TTITLE2=栞のテーマ
TTITLE3=悲しい気持ち (Just a man in love)
TTITLE4=涙のキッス
TTITLE5=真夏の果実
TTITLE6=夏をあきらめて
TTITLE7=ONE DAY
TTITLE8=メロディ (MELODY)
TTITLE9=素敵なパーティー (NO NO BIRDY)
TTITLE10=いとしのエリー
TTITLE11=あなただけを〜Summer Heartbreak〜
EXTD=YEAR: 2000
EXTT0=
EXTT1=
EXTT2=
EXTT3=
EXTT4=
EXTT5=
EXTT6=
EXTT7=
EXTT8=
EXTT9=
EXTT10=
EXTT11=
PLAYORDER=
